<?xml version="1.0" encoding="UTF-8" standalone="no"?>
<svg
   xmlns:dc="http://purl.org/dc/elements/1.1/"
   xmlns:cc="http://creativecommons.org/ns#"
   xmlns:rdf="http://www.w3.org/1999/02/22-rdf-syntax-ns#"
   xmlns:svg="http://www.w3.org/2000/svg"
   xmlns="http://www.w3.org/2000/svg"
   xmlns:sodipodi="http://sodipodi.sourceforge.net/DTD/sodipodi-0.dtd"
   xmlns:inkscape="http://www.inkscape.org/namespaces/inkscape"
   inkscape:version="1.0 (4035a4fb49, 2020-05-01)"
   sodipodi:docname="speaker.svg"
   xml:space="preserve"
   style="enable-background:new 0 0 66.816 66.816;"
   viewBox="0 0 66.816 66.816"
   y="0px"
   x="0px"
   id="Capa_1"
   version="1.1"><metadata
   id="metadata925"><rdf:RDF><cc:Work
       rdf:about=""><dc:format>image/svg+xml</dc:format><dc:type
         rdf:resource="http://purl.org/dc/dcmitype/StillImage" /></cc:Work></rdf:RDF></metadata><defs
   id="defs923" /><sodipodi:namedview
   inkscape:current-layer="g888"
   inkscape:window-maximized="0"
   inkscape:window-y="473"
   inkscape:window-x="1614"
   inkscape:cy="33.408"
   inkscape:cx="33.408"
   inkscape:zoom="10.281968"
   showgrid="false"
   id="namedview921"
   inkscape:window-height="1250"
   inkscape:window-width="2127"
   inkscape:pageshadow="2"
   inkscape:pageopacity="0"
   guidetolerance="10"
   gridtolerance="10"
   objecttolerance="10"
   borderopacity="1"
   bordercolor="#666666"
   pagecolor="#ffffff" />
<g
   id="g888">
	<path
   id="path880"
   d="m 51.896501,4.6366686 c -1.34,-0.653 -2.938,-0.483 -4.11,0.436 l -12.491,9.7890004 c -0.682,-0.199 -1.398,-0.312 -2.144,-0.312 h -12.814 c -4.202,0 -7.609,3.408 -7.609,7.609 v 22.193 c 0,4.201 3.407,7.607 7.609,7.607 h 12.814 c 0.64,0 1.257,-0.088 1.849,-0.234 l 12.786,10.018 c 0.7,0.548 1.55,0.83 2.404,0.83 0.581,0 1.165,-0.13 1.706,-0.395 1.34,-0.651 2.191,-2.012 2.191,-3.504 V 8.1396686 c 0,-1.492 -0.851,-2.851 -2.191,-3.503 z" />
	
	
	
</g>
<g
   id="g890">
</g>
<g
   id="g892">
</g>
<g
   id="g894">
</g>
<g
   id="g896">
</g>
<g
   id="g898">
</g>
<g
   id="g900">
</g>
<g
   id="g902">
</g>
<g
   id="g904">
</g>
<g
   id="g906">
</g>
<g
   id="g908">
</g>
<g
   id="g910">
</g>
<g
   id="g912">
</g>
<g
   id="g914">
</g>
<g
   id="g916">
</g>
<g
   id="g918">
</g>
</svg>
